<?xml version="1.0" encoding="UTF-8"?>
<svg width="752pt" height="752pt" version="1.1" viewBox="0 0 752 752" xmlns="http://www.w3.org/2000/svg">
 <g>
  <path d="m376 229.19c-38.934 0-76.277 15.469-103.81 43s-43 64.875-43 103.81c0 38.938 15.469 76.281 43 103.81s64.875 43 103.81 43c38.938 0 76.281-15.469 103.81-43s43-64.875 43-103.81c0-38.934-15.469-76.277-43-103.81s-64.875-43-103.81-43zm0 265.21c-31.398 0-61.512-12.477-83.715-34.68-22.207-22.203-34.68-52.316-34.68-83.719 0-31.398 12.473-61.512 34.68-83.715 22.203-22.207 52.316-34.68 83.715-34.68 31.402 0 61.516 12.473 83.719 34.68 22.203 22.203 34.68 52.316 34.68 83.715 0 31.402-12.477 61.516-34.68 83.719s-52.316 34.68-83.719 34.68z"/>
  <path d="m385.47 308.56-57.398 57.398c-5.5391 5.5469-5.5391 14.535 0 20.082l57.398 57.395 20.082-20.078-47.359-47.359 47.359-47.359z"/>
 </g>
</svg>
