<?xml version="1.0" encoding="UTF-8"?>
<svg width="752pt" height="752pt" version="1.1" viewBox="0 0 752 752" xmlns="http://www.w3.org/2000/svg">
 <g>
  <path d="m234.39 330.8c-2.2188-2.2188-5.2305-3.4688-8.3672-3.4688-3.1406 0-6.1484 1.25-8.3672 3.4688l-37.004 36.832c-0.625 0.74609-1.1562 1.5664-1.5781 2.4453-0.33594 0.42188-0.63672 0.87109-0.89844 1.3398-1.2617 2.9336-1.2617 6.2578 0 9.1875 0.26172 0.48047 0.5625 0.93359 0.89844 1.3594 0.42578 0.875 0.95703 1.6992 1.5781 2.4453l37.004 36.859v0.003906c4.6562 4.4766 12.039 4.3945 16.598-0.18359 4.5547-4.5781 4.6016-11.965 0.10156-16.598l-16.684-16.641h64.879c6.5391 0 11.84-5.3008 11.84-11.84s-5.3008-11.84-11.84-11.84h-64.879l16.684-16.59c2.2422-2.2148 3.5039-5.2344 3.5117-8.3828 0.003907-3.1523-1.2461-6.1719-3.4766-8.3984z"/>
  <path d="m177.1 510.18c0.12891 19.562 8.0156 38.273 21.922 52.027 13.91 13.758 32.711 21.434 52.273 21.344h79.926-0.003906c3.9492 4.4414 8.4062 8.3984 13.277 11.793 20.02 13.918 45.566 17.195 68.449 8.7773l113.38-41.359c14.133-5.1289 26.359-14.453 35.043-26.727 8.6875-12.273 13.41-26.906 13.547-41.941v-235.98c-0.09375-15.062-4.793-29.738-13.461-42.055-8.6719-12.316-20.902-21.688-35.051-26.852l-113.38-41.359c-14.047-5.1875-29.332-6.0039-43.852-2.3438-14.52 3.6641-27.59 11.633-37.492 22.863h-80.383c-19.578-0.085938-38.387 7.5977-52.301 21.371-13.91 13.773-21.785 32.508-21.895 52.082v22.336c0 6.5391 5.3008 11.84 11.84 11.84s11.84-5.3008 11.84-11.84v-22.336c0.11719-13.289 5.5-25.984 14.973-35.305s22.254-14.504 35.543-14.406h66.082-0.003906c-2.8281 7.8477-4.2852 16.125-4.3086 24.469v318.86c0.003906 8.3398 1.4375 16.621 4.2305 24.484h-66c-13.293 0.09375-26.082-5.0898-35.555-14.418-9.4727-9.3242-14.852-22.031-14.961-35.324v-22.305c0-6.5391-5.3008-11.84-11.84-11.84s-11.84 5.3008-11.84 11.84zm209.95-343.29c6.0586 0.007812 12.07 1.0742 17.762 3.1602l113.31 41.375c9.6758 3.3867 18.059 9.6992 23.988 18.062 5.9336 8.3633 9.1172 18.363 9.1133 28.617v235.98c-0.10156 10.184-3.3125 20.094-9.1992 28.402-5.8867 8.3125-14.172 14.629-23.746 18.102l-113.38 41.359c-15.605 5.9023-33.125 3.6602-46.742-5.9805-13.387-9.1367-21.371-24.316-21.312-40.523v-318.89c-0.039062-10.516 3.3359-20.758 9.6133-29.188 9.5508-12.836 24.59-20.422 40.586-20.477z"/>
  <path d="m374.74 391.49c4.1016 0 8.0391-1.6289 10.938-4.5312 2.9023-2.9023 4.5312-6.8359 4.5312-10.941 0-4.1016-1.6289-8.0352-4.5312-10.938-2.8984-2.9023-6.8359-4.5312-10.938-4.5312-4.1016 0-8.0391 1.6289-10.938 4.5312-2.9023 2.9023-4.5312 6.8359-4.5312 10.938 0 4.1055 1.6289 8.0391 4.5312 10.941 2.8984 2.9023 6.8359 4.5312 10.938 4.5312z"/>
 </g>
</svg>
